<svg width="296" height="209" viewBox="0 0 296 209" fill="none" xmlns="http://www.w3.org/2000/svg">
<path fill-rule="evenodd" clip-rule="evenodd" d="M2.10754 195.343H141.864V152.402H69.022V151.085C90.3609 131.941 104.279 118.944 110.778 112.095C117.364 105.245 122.633 98.7472 126.584 92.6002C130.536 86.3654 133.434 80.0427 135.278 73.6323C137.21 67.2219 138.176 60.2406 138.176 52.6886C138.176 42.5899 135.454 33.5012 130.009 25.4222C124.652 17.2555 117.056 10.9768 107.221 6.58607C97.4739 2.19536 86.3654 0 73.8957 0C63.9727 0 55.0157 1.00986 47.0246 3.02959C39.1213 5.04932 31.7888 7.9911 25.0271 11.8549C18.2654 15.6309 9.92302 21.9536 0 30.8228L28.5836 64.2801C36.399 57.5184 43.3803 52.4251 49.5273 49.0004C55.7621 45.4878 61.9091 43.7315 67.9683 43.7315C73.8518 43.7315 78.4182 45.1805 81.6673 48.0783C84.9164 50.9762 86.541 54.9278 86.541 59.9333C86.541 63.9727 85.7068 67.8366 84.0383 71.5248C82.4576 75.213 79.6037 79.6476 75.4764 84.8286C71.3491 89.9219 62.5677 99.4936 49.1321 113.544L2.10754 161.095V195.343ZM271.241 183.421C287.487 166.561 295.61 139.295 295.61 101.622C295.61 72.8193 289.155 50.6023 276.247 34.9713C263.338 19.3404 245.116 11.5249 221.582 11.5249C200.419 11.5249 183.734 17.5841 171.528 29.7025C159.41 41.8208 153.35 58.5495 153.35 79.8883C153.35 99.4709 158.049 114.838 167.445 125.991C176.841 137.143 189.881 142.719 206.566 142.719C213.767 142.719 219.782 141.973 224.612 140.48C229.442 138.987 233.525 136.836 236.862 134.026C240.199 131.216 243.58 126.649 247.004 120.327H248.585C247.707 136.924 242.219 149.086 232.12 156.814C222.021 164.454 207.664 168.273 189.047 168.273C181.495 168.273 173.943 167.571 166.391 166.166V207.395C172.538 208.273 181.495 208.712 193.262 208.712C229.002 208.712 254.996 200.282 271.241 183.421ZM209.069 59.3398C212.669 55.2125 217.323 53.1489 223.031 53.1489C229.002 53.1489 233.92 55.9589 237.784 61.5791C241.736 67.1992 243.711 73.917 243.711 81.7324C243.711 87.5282 241.604 92.4897 237.389 96.617C233.174 100.744 228.212 102.808 222.504 102.808C216.182 102.808 211.484 100.7 208.41 96.4852C205.337 92.1823 203.8 86.4305 203.8 79.2297C203.8 70.097 205.556 63.4671 209.069 59.3398Z" fill="url(#paint0_linear)"/>
<defs>
<linearGradient id="paint0_linear" x1="143.35" y1="9.16532" x2="147.711" y2="189.976" gradientUnits="userSpaceOnUse">
<stop offset="0.090815" stop-color="#FAFAFA"/>
<stop offset="1" stop-color="#FAFAFA" stop-opacity="0"/>
</linearGradient>
</defs>
</svg>
